<svg xmlns="http://www.w3.org/2000/svg" width="471.233" height="463.875" viewBox="0 0 471.233 463.875"><g id="Group_8" data-name="Group 8" transform="translate(-35.062 86.236) rotate(-16)"><path id="Path_1" data-name="Path 1" d="M411.444,182.87c-.762-10.046-5.582-20.224-7.351-27.233-2.611-10.33-8.324-17.013-13.185-24.746A155.492,155.492,0,0,0,375.145,110.3c-11.256-12.494-23.5-23.831-39.377-39.364q-2.741-2.489-5.442-4.825l-2.908-2.49c-1.012-.82-2.308-1.738-3.239-2.4-3.944-2.787-7.9-5.279-11.855-7.556A170.254,170.254,0,0,0,288.4,42.34,179.832,179.832,0,0,0,263.273,34.8c-2.169-.481-4.425-.941-6.6-1.349l-6.384-1.246-13.561-2.579c-6.626,2.561-24.709-.294-45.3-1.073a203.534,203.534,0,0,0-31.19.912c-1.251.147-2.492.3-3.715.484l-4.23.66c-.807.221-1.759.592-2.4.8l-1.675.626c-1.107.421-2.18.865-3.226,1.309a66.812,66.812,0,0,0-10.9,5.839c-8.605,4.554-14.376,9.365-16.48,11.858-2.074,2.558-.3,3.139-2.5,4.609-1.428.957-2.666,1.793-3.778,2.524l-6.568,4.291c-1.53,1-2.4,2.072-4.675,3.423s.013-.021.021-.032-6.449,3.081-10.065,6.368c-1.835,1.67-1.722,1.822-3.62,3.4s-3.01,2.251-5.019,4.162S78.17,82.893,76.6,84.675c-1.922,3.1-3.736,6.244-5.471,9.413-9.526,8.889-15.152,17.571-20.14,26.707-2.485,4.588-4.8,9.331-7.262,14.487l-1.88,3.978c-.7,1.415-.852,2.237-1.88,4.354-4.081,8.424-6.573,24.933-8.411,30.3s-3.213,20.694-3.213,32.828a121.138,121.138,0,0,0,3.034,25.553c.794,4.109,3.552,7.364,4.307,10.314s.9,11.45,1.467,17.742,2.529,15.809,6.641,28.33,7.788,12.875,12.118,22.246,13.2,21.391,22.59,30.854A152.839,152.839,0,0,0,96.5,357.27a162.483,162.483,0,0,0,15.7,11.937q3.68,2.5,7.488,4.838t7.74,4.485a163.27,163.27,0,0,0,15.446,7.183,33.452,33.452,0,0,1-14.319-3.281c-3.35-1.412-6.907-3.9-8.143-4.3s-1.2,1.412,2.608,3.991c9.646,7.357,20.955,10.186,31.784,12.286,12.1,2.348,21.541,3.681,30.123,4.7,8.216.973,18.118,1.762,26.092,1.877,9.042.134,18.036-1.4,26.213-2.5,3.247-.26,6.494-.56,9.731-.941,9.833,1.485,19.409-3.694,22.472-5.038s6.208-2.821,9.334-4.288l2.28-1.075A69.274,69.274,0,0,0,304,380.083c7.122-3.526,12.036-6.881,17.873-10.593A114.759,114.759,0,0,0,341.678,353.4a159.14,159.14,0,0,0,24.315-28.711c3.392-5.061,6.47-10.18,9.3-15.247l2.077-3.789.962-1.788c.313-.552.7-.957,1.123-1.562l4.956-6.639c.592-.8,1.157-1.638,1.735-2.469a19.651,19.651,0,0,0,1.654-2.908q1.388-2.741,2.626-5.592a117.087,117.087,0,0,0,4.341-11.674,130.343,130.343,0,0,0,5.014-23.516c1.286-10.682,1.157-22.911.363-27.286s.389-8.129-.184-19.159a139.344,139.344,0,0,0-9.5-42.088c-5.045-12.318-11.143-20.468-11.277-21.073-.4-1.812,5.795,4.212,12.6,18.063,1.4,2.855,4.656,3.973,7.512,15.494,1.625,6.557,4.359,16.6,5.193,23.994a90.559,90.559,0,0,1,.468,12.178c.037,1.717-1.1,8.75,1.58,7.044,5.2-3.307,1.283-10.259,3.01-15.2C411.3,196.744,412.209,192.919,411.444,182.87Zm-48.553-61.323c-1.84-.726-6.526-6.931-7.364-8.855s-7.824-4.328-11.39-7.966S333.084,92.692,329.119,90.6s-12.694-8.826-10.2-8.695,15.2,5.842,16.693,10.293c2.866,8.519,8.484,5.466,16.493,14.043S364.734,122.273,362.891,121.547Z" transform="translate(0)" fill="#5151b3"></path><g id="Group_3" data-name="Group 3" transform="translate(85.888 125.231)"><g id="Group_1" data-name="Group 1" transform="translate(182.609 30.182)"><path id="Path_2" data-name="Path 2" d="M187.5,123.5c5.3-9.021,6.673-19.285,2.982-29.108-2.169-5.766-7-9.118-12.452-11.513-11.069-4.861-22.782-1.741-32.7,4.272-.9.544-.431,2.1-.1,2.811,4.207,8.971-5.8,26.192,6.647,30.83,4.622,1.725,10.283-2.519,12.457-6.163,2.563-4.309,2.432-11.1.492-15.615-1.2-2.8-5.269-3.549-3.6.331,1.84,4.28.032,10.653-3.313,13.609a12.222,12.222,0,0,1-4.27,2.166c-3.941,1.246-4.028-1.5-3.581-4.94.76-5.85,1.517-12.494-.352-18.3,12-6.747,33.722-9.775,38.121,5.837,2.222,7.89-1.533,16.932-5.784,23.473-1.07,1.646-1.046,1.953-.886,4.2.318,4.5.013,9.168-1.938,13.293-3.308,6.983-12.207,8.153-18.5,7.74a30.161,30.161,0,0,1-16.709-6.3,22.812,22.812,0,0,1-2.519-2.4,3.719,3.719,0,0,0-2.621-1.11c-4.685-.565-8.818-.7-11.135-2.953-2.29-2.224.229-9.129,1.478-11.271.82-1.409-.647-3.557-1.667-4.422-3.116-2.634-1.738-6.923-.039-9.865.691-1.2-.35-3-1.12-3.883-4.7-5.392-.468-11.894,5.792-11.537,2.264.131-.868-5.2-3.1-5.329a8.551,8.551,0,0,0-8.871,6.031c-1.354,4.336.074,8.182,2.506,11.6a13.929,13.929,0,0,0,1.6,14.521c-1.507,3.4-2.385,9.108-1.251,12.673a10.6,10.6,0,0,0,5.44,6.76A20.351,20.351,0,0,0,138.01,141a3.471,3.471,0,0,1,2.716.983c7.4,6.86,14.153,9.9,23.726,10.086,6.886.131,13.4-1.88,17.589-6.865,2.605-3.095,3.321-7.672,3.526-11.542.129-2.524-.72-6.134-.276-6.728A35.239,35.239,0,0,0,187.5,123.5Z" transform="translate(-119.687 -70.463)" fill="#fff"></path><path id="Path_3" data-name="Path 3" d="M140.064,88.162c-6.165,10.136-4.79,22.577,3.92,30.654.894.826,2.84,2.216,3.578,1.643.981-.762-.011-3.486-.9-4.315-7.514-6.959-8.618-17.387-3.331-26.079.4-.655,1.354-2.684,1.06-3.184-.642-1.094-3.455-.145-4.322,1.28Z" transform="translate(-92.672 -60.824)" fill="#fff"></path><path id="Path_4" data-name="Path 4" d="M164.7,89.259a127.588,127.588,0,0,0-14.826-8.2c-5.122-2.416-12.5-5.963-18.21-3.61-4.89,2.019-12.391,9.307-9.37,15.186,4,7.772,14.679,9.857,22.472,10.809,2.414.294,2.387-3.484,0-3.776-4.793-.586-20.531-3.089-19.188-10.89,1.265-7.335,9.486-8.879,15.17-7.272,7.78,2.2,14.2,5.787,20.96,10.162,2.051,1.328,5.027-1.088,2.992-2.408Z" transform="translate(-116.569 -76.676)" fill="#fff"></path><path id="Path_5" data-name="Path 5" d="M135.756,109.575a9.856,9.856,0,0,0,5.24-2.926c3.1-3.179,2.343-6.873-.242-9.983a6.309,6.309,0,0,0-1.054-1c-.823-.62-2.466.415-1.93,1.062,3.584,4.312,1.273,8.708-5.795,10.433-.936.229-3.255,1.362-2.216,2.053C130.989,110.037,133.66,110,135.756,109.575Z" transform="translate(-103.705 -46.048)" fill="#fff"></path><path id="Path_6" data-name="Path 6" d="M125.125,93.278a23.625,23.625,0,0,0,15.828.873c.891-.242,2.6-2.6,1.932-2.942a5.619,5.619,0,0,0-4.309-.447,17.561,17.561,0,0,1-7.777,1.262,8.526,8.526,0,0,1-1.588-.266c-.313-.092-1.4-.542-.473-.124-1.249-.563-2.976-1.052-4.309-.447-1.28.581-.079,1.743.7,2.09Z" transform="translate(-112.878 -54.143)" fill="#fff"></path><path id="Path_7" data-name="Path 7" d="M147.534,96.234c.747-.634-.124-1.254-.891-1.43a12.712,12.712,0,0,0-6.47,1.217,18.971,18.971,0,0,1-7.8,2.677c-3.286.436-5.222-.129-6.478.765-1.209.862-2.019,1.525.823,2.093C130.733,102.355,141.666,101.216,147.534,96.234Z" transform="translate(-111.385 -47.278)" fill="#fff"></path></g><path id="Path_8" data-name="Path 8" d="M145.987,110.93c-10.79.16-10.441,11.177-16.524,16.735-3.145-3.72-6.176-7.856-7.84-12.394-1.507-11.313-2.411-22.769-4.265-34.024-.881-5.343-2.629-10.02-7.806-12.263-3.686-1.6-8.553.021-9.491,4.128-1.133,4.953.663,9.817,1.7,14.642.9,4.217,1.291,8.537,1.83,12.812q.383,3.064.76,6.129.2,1.664.379,3.331.3,2.843-.108-.4c-6.3-11.579-8.963-25.075-15.617-36.4C84.774,66.031,72.808,67.151,71.62,76.1c-.381,2.876,1.546,6.094,2.708,8.558,3.731,7.909,7.343,15.867,11.045,23.786,1.031,2.206,2.069,4.409,3.055,6.639-.773-.555-1.533-1.128-2.282-1.7-5.795-4.375-10.782-9.765-15.757-15.018-2.932-3.1-7.98-9.455-13.009-8.54a8.637,8.637,0,0,0-7.049,6.633c-.849,4.23,3.981,8.8,6.473,11.416,6.218,6.534,13.43,12.2,20.513,17.765.636.5,1.27,1.086.912,1.007a30.019,30.019,0,0,1-5.237-1.275c-4.207-1.262-8.148-3.576-12.452-4.493-4.488-.96-9.134,1.443-8.474,6.768.831,6.739,8.232,9.037,13.672,11.269,3.534,1.451,9.7,2.358,12.494,5.014,2.29,2.174,3.281,6.81,4.7,9.568a34.365,34.365,0,0,0,16.766,16.141c4.028,1.827,10.17,3.292,14.361.96,1.888-1.052,2.624-4.115,1.6-4.767-.631-.4-1.031-.308-2.429.636-3.552,2.393-8.682.694-12.065-.618-6.008-2.337-10.283-6.991-13.588-12.352-2.861-4.641-3.754-11.721-9.163-14.163-4.167-1.882-8.674-3.168-12.912-4.909a52.513,52.513,0,0,1-6.557-3.15c-4.814-2.8-2.847-7.543,2.024-6.071,4.4,1.33,18.333,9.652,22.424,4.031,2.6-3.576-4.031-7.151-6.239-8.895C69.527,114.332,59.61,107.667,54.9,98.962a3.1,3.1,0,0,1-.379-2.558c1.793-5.027,6.5-1.3,8.455.3,4.588,3.76,8.406,8.666,12.644,12.825,3.652,3.578,10.2,11.066,15.588,11.395a2.022,2.022,0,0,0,1.846-.826c2.553-4.2-4.012-13.383-5.682-16.977-3.762-8.1-9.3-16.845-11.584-25.532-1.627-6.2,7.63-5.884,10.088-1.7,2.769,4.714,4.322,10.385,6.36,15.433,2.716,6.728,5.04,14.915,9.239,20.942,3.116,4.47,7.846,4.543,7.383-1.6A225.291,225.291,0,0,0,104.088,79.7c-.368-1.7-1.141-3.76-.242-5.059,1.833-2.653,4.861-2.553,6.986-.074a15.393,15.393,0,0,1,2.117,5.4c1.325,5.064,1.486,10.517,2.1,15.7.8,6.825,1.685,13.64,2.6,20.45a2.124,2.124,0,0,0,.268.781,40.6,40.6,0,0,0,6.478,10.958c-10.246.153-15.786,11.3-16.853,20.681a1.814,1.814,0,0,0,.736,1.764,2.064,2.064,0,0,0,3.3-1.362c.949-8.342,5.7-18.846,15.883-16.7a9.929,9.929,0,0,0,3.334.423,3.251,3.251,0,0,0,.936-.316c4.462-2.939,5.637-9.4,8.671-13.4a11.6,11.6,0,0,1,4.964-3.3c3.515-1.478,12.415-.126,9.323,5.08-2.656,4.472-7.48,7.488-10.961,11.242-8.058,8.682-6.41,32.96-23.713,28.661-2.868-.713-1.22,3.287,1.254,3.92a14.893,14.893,0,0,0,16.546-6.307c3.252-5.009,3.812-11.787,6.137-17.271,2.947-6.967,10.072-10.719,14.424-16.672C164.112,116.448,152.515,110.835,145.987,110.93Z" transform="translate(-50.232 -60.014)" fill="#fff"></path><g id="Group_2" data-name="Group 2" transform="translate(106.837)"><path id="Path_9" data-name="Path 9" d="M122.6,133.8c-11.177-.392-20.55-5.319-24.383-16.248-4.3-12.278,8.143-24.394,16.929-30.562q-2.839.615-5.682,1.228c4.517,5.264,11.192,7.606,17.463,9.975,1.785.676,4.543,1.643,5.048,2.861.994,2.385-1.935,5.4-4.667,6.723-5.319,2.59-9.549-1.911-11.04-4.391-.484-.8-3.152-1.4-4.378-.744-.9.486-1.023,1.43-.373,2.437,5.671,8.782,16.632,8.863,23.324,1.854,3.852-4.033,2.721-8.65-1.859-11.221-5.858-3.289-12.441-4.2-17.087-9.615-1-1.162-4.74.571-5.679,1.23-8.931,6.268-22.067,18.1-18.859,30.772,3.121,12.334,13.937,17.942,25.966,18.362,1.47.053,6.744-2.608,5.277-2.661Z" transform="translate(-90.867 -31.788)" fill="#fff"></path><path id="Path_10" data-name="Path 10" d="M99.6,98.037c8.534-1.22,14.731,4.194,16.806,11.91.681,2.537,4.793,4.054,4.428,1.464-1.577-11.119-10.464-19.017-21.938-17.374-2.6.371-1.885,4.372.7,4Z" transform="translate(-80.437 -18.56)" fill="#fff"></path><path id="Path_11" data-name="Path 11" d="M103.407,137.015c6.873,5.842,14.865,8.687,23.374,4.551,8.976-4.364,13.577-16.919,12.617-26.271-.276-2.687-1.588-4.225-.258-6.273,2.111-3.247,3.242-7.32,1.5-10.93-2-4.13-7.927-5.974-12.128-6.447q1.57,1.049,3.145,2.1c-.613-7.824-6.321-11.227-13.79-11.129-7.832.1-10.866,12.412-12.081,18.257-.268,1.3,1.767,1.422,3.649,1.79,1.328.263,2.608,1.246,2.813.263a46.97,46.97,0,0,1,4.677-12.817c.421-.781,2.082-4.046,3.213-4.062,3.615-.045,4.585,4.078,4.8,6.836.113,1.42,1.959,1.964,3.144,2.1a7.707,7.707,0,0,1,6.389,4.044c2.172,4.5-4.057,8.043-2.687,11.716,1.685,4.533,1.2,9.507-.024,14.071-1.041,3.875-3.392,7.328-5.874,10.4-4.764,5.913-10.653,5.808-16.467.862-1.585-1.346-8.166-.889-6.016.939Z" transform="translate(-71.134 -36.822)" fill="#fff"></path><path id="Path_12" data-name="Path 12" d="M119.28,90.512c-.991,2.237-5.39,12.149-8.413,10.882-2.4-1-7.375,3.468-4.809,4.543,8.779,3.67,15.936-9.4,18.765-15.786,1.622-3.657-4.52-1.951-5.542.36Z" transform="translate(-67.286 -27.996)" fill="#fff"></path><path id="Path_13" data-name="Path 13" d="M118.957,95.039a16.411,16.411,0,0,1-3.357,1.84,6.729,6.729,0,0,1-2.377.647c-.739-.021-1-1.278-1.07-1.528-.4-1.43-1.294-1.835-2.608-2.256-.486-.158-3.326-.71-2.929.7a9.883,9.883,0,0,0,10.816,7,16.1,16.1,0,0,0,7.115-2.926C126.35,97.239,120.692,93.816,118.957,95.039Z" transform="translate(-65.272 -19.079)" fill="#fff"></path><path id="Path_14" data-name="Path 14" d="M129.681,114.1c3.426-10.419,7.8-20.492,11.284-30.888,1.893-5.647,4.044-16.706-4.746-17.892-8.86-1.2-11.1,6.6-13.154,13.535-1.1,3.718-6.668,31.845-11.324,31.2.613.739,1.22,1.478,1.83,2.214,1.233-10.7,1.543-21.494,2.269-32.239.394-5.847-1.551-15.433-9.741-13.472-7.9,1.893-7.819,17.768-8.2,23.439-.765,11.3-.965,22.669-1.362,33.99-.092,2.611,4.015,1.2,4.109-1.42.223-6.431.4-11.061.657-17.495.4-10.259-.179-21.546,3.381-31.327,1.37-3.755,5.713-4.548,6.946.166,1.2,4.588-.231,10.448-.589,15.113-.578,7.627-.636,15.244-1.512,22.861a2.057,2.057,0,0,0,1.83,2.214c5.813.81,7.493-5.992,8.763-10.149,2.713-8.892,4.98-17.918,7.7-26.813a40.959,40.959,0,0,1,1.675-4.57c1.346-3.076,7.391-6.139,9.068-.294,1.317,4.593-1.785,10.78-3.336,14.986-3.129,8.477-6.531,16.843-9.355,25.43-.818,2.487,2.989,3.9,3.81,1.412Z" transform="translate(-81.636 -65.196)" fill="#fff"></path></g></g><g id="Group_7" data-name="Group 7" transform="translate(80.568 250.917)"><g id="Group_4" data-name="Group 4" transform="translate(0 1.426)"><path id="Path_15" data-name="Path 15" d="M52.86,151.972c-.011,1.317-.016,4.088-.016,4.088a1.668,1.668,0,0,1-1.393,1.609c-.873.195-1.57-.77-1.57-1.656s-.024-4.422-.013-5.768.024-2.69.045-4.025a4.275,4.275,0,0,1-.552-.392c-.176-.147-.35-.287-.526-.423a1.408,1.408,0,0,1-.26-2.119,1.352,1.352,0,0,1,1.365-.552q0-2.911.032-5.813T50,131.109a45.427,45.427,0,0,0-.7-8.137,58.384,58.384,0,0,1-.873-7.932c0-.991.515-1.483,1.543-1.483a1.535,1.535,0,0,1,1.073.523q5.64-2.212,8.923,4.68a31.176,31.176,0,0,1,2.511,9.994,42.867,42.867,0,0,1-.042,10.317,13.685,13.685,0,0,1-1.814,5.216,9.373,9.373,0,0,1-4.2,3.557,4.448,4.448,0,0,1-3.518.179C52.884,149.337,52.871,150.657,52.86,151.972Zm-.494-28.855a47.855,47.855,0,0,1,.626,6.134q.118,3.715.029,7.727t-.087,7.759a2.411,2.411,0,0,0,2.266.35,6.248,6.248,0,0,0,3.005-2.616,11.689,11.689,0,0,0,1.265-3.833,40.01,40.01,0,0,0,.058-9.447,27.834,27.834,0,0,0-2.266-9.152,7.978,7.978,0,0,0-2.3-3.084q-1.25-.9-3.4.147C51.758,119.1,52.029,121.1,52.366,123.117Z" transform="translate(-48.209 -113.543)" fill="#fff"></path><path id="Path_16" data-name="Path 16" d="M60.38,118.572a5.6,5.6,0,0,1,3.515,4.885q.118,1.246.105,3.371t.042,3.457c0,.7.032,2.027.1,4s.11,4.028.129,6.189,0,4.136-.06,5.926a7.975,7.975,0,0,1-.434,3.155,1.516,1.516,0,0,1-1.756.565,1.764,1.764,0,0,1-1.265-1.672,4.119,4.119,0,0,1-.089-.9,2.58,2.58,0,0,1,.147-.728,4.41,4.41,0,0,1-2.934.205,3.611,3.611,0,0,1-2.18-2.411,13.86,13.86,0,0,1-.773-6.352,10.4,10.4,0,0,1,2.224-5.968,4.737,4.737,0,0,1,3.868-2.093v-.67c-.024-.736-.032-1.7-.032-2.905s-.029-2.14-.087-2.818a2.818,2.818,0,0,0-1.583-2.4,1.975,1.975,0,0,0-2.369.334,1.319,1.319,0,0,1-2.122.118,1.373,1.373,0,0,1-.145-2.122A4.985,4.985,0,0,1,60.38,118.572Zm.857,20.111c-.026-1.551-.1-4.141-.1-4.622s.047-.889-.7-.723-1.825,1.606-2.164,3.252a14.1,14.1,0,0,0-.365,3.981c.042.465.142,1.228.3,2.282s.6,1.488,1.3,1.294a2.538,2.538,0,0,0,.812-.363,4.616,4.616,0,0,1,.639-.423l.318-.087C61.279,141.764,61.266,140.231,61.237,138.682Z" transform="translate(-38.363 -106.064)" fill="#fff"></path><path id="Path_17" data-name="Path 17" d="M62.419,120.234v.189a7.717,7.717,0,0,1,3.444-1.817,4.929,4.929,0,0,1,3.967,1.062A10.487,10.487,0,0,1,74,126.394a33.035,33.035,0,0,1,.8,8.122,39.415,39.415,0,0,1-1.817,9.62q-1.641,5.434-7.133,5.319a8.146,8.146,0,0,1-3.544-1.02q-.181,2.619-.221,5.55t-.045,5.379l-.318-.35a1.331,1.331,0,0,1-.145,2.122,1.351,1.351,0,0,1-2.122-.147l-.408-1.567c-.037-.389-.047-1.22-.026-2.5s.055-2.658.113-4.141.124-2.876.189-4.183.131-2.206.192-2.69a76.824,76.824,0,0,0,.3-12.917q-.39-6.464-.421-12.949a1.51,1.51,0,0,1,3.021,0Zm.436,14.429a82.96,82.96,0,0,1-.2,10.054,2.294,2.294,0,0,0,1.162,1.133,3.753,3.753,0,0,0,4.012.16,6.8,6.8,0,0,0,2.527-3.271,24.9,24.9,0,0,0,1.483-8.632,20.751,20.751,0,0,0-1.367-8.658q-3.021-6.886-7.38-1.336a1.538,1.538,0,0,1-.581.494Q62.65,129.665,62.855,134.663Z" transform="translate(-30.61 -105.443)" fill="#fff"></path><path id="Path_18" data-name="Path 18" d="M69.4,141.866a8.582,8.582,0,0,0,.7,3.226q1.483,2.82,2.093-.058a10.219,10.219,0,0,1,.321-1.412,16.638,16.638,0,0,1,.8-2.366,1.584,1.584,0,0,1,1.081-.492,1.345,1.345,0,0,1,1.63,1.365,13.412,13.412,0,0,1-.276,1.336c-.068.216-.626,2.18-.626,2.18q-.726,3.49-3.413,3.647t-4.259-2.832a10.322,10.322,0,0,1-1.06-4.244q-.189-2.67-.16-5.287a1.419,1.419,0,0,1-.639-1.133,1.5,1.5,0,0,1,.7-1.367c.021-.389.029-.923.029-1.6,0-.736.066-1.9.187-3.473a32.821,32.821,0,0,1,.744-4.751,15.433,15.433,0,0,1,1.57-4.17,2.978,2.978,0,0,1,2.7-1.759,4.357,4.357,0,0,1,3.894,2.2,13.508,13.508,0,0,1,1.7,5,25.389,25.389,0,0,1,.174,5.8,28.474,28.474,0,0,1-.684,4.591c-.35,1.378-1.046,1.859-2.093,1.454q-1.542-.091-2.716-.263t-2.571-.26Q69.229,139.6,69.4,141.866Zm2.151-7.5c.757.074,1.541.155,2.353.231a38.289,38.289,0,0,0,.379-7.5c-.079-3.237-1.338-6-2.7-5.377-.715.329-1.194,2.277-1.6,4.735a43.772,43.772,0,0,0-.639,5c-.039.578-.066,1.488-.089,2.732Q70.418,134.252,71.553,134.37Z" transform="translate(-19.884 -105.18)" fill="#fff"></path><path id="Path_19" data-name="Path 19" d="M75.164,134.42c.408,3.179.789,7.243,1.223,11.826a2.968,2.968,0,0,1-.1,1.585,2.215,2.215,0,0,1-1.378.86,1.525,1.525,0,0,1-1.514-1.428c-.055-.718-.087-1.346-.087-1.888q-.406-5.056-1.06-9.983t-.915-9.983l-.105-.1a.377.377,0,0,1-.071-.131,1.458,1.458,0,0,1,.089-1.8c-.021-.465-.029-1.152-.029-2.061a1.336,1.336,0,0,1,1.512-1.514,1.389,1.389,0,0,1,1.393.96,8.609,8.609,0,0,1,3.72-1.541q4.267-.868,4.677,3.373a1.512,1.512,0,0,1-3.024,0,1.53,1.53,0,0,0-.055-.494,3.808,3.808,0,0,0-1.932.292,5.035,5.035,0,0,0-1.762.928,10.688,10.688,0,0,0-.8.77,6.486,6.486,0,0,1-.626.594Q74.556,129.653,75.164,134.42Z" transform="translate(-11.264 -104.533)" fill="#fff"></path></g><g id="Group_5" data-name="Group 5" transform="translate(78.043)"><path id="Path_20" data-name="Path 20" d="M112.659,134.42c.408,3.179.789,7.243,1.22,11.826a2.98,2.98,0,0,1-.1,1.585,2.231,2.231,0,0,1-1.38.86,1.524,1.524,0,0,1-1.512-1.428c-.058-.718-.089-1.346-.089-1.888q-.4-5.056-1.06-9.983t-.915-9.983l-.1-.1a.34.34,0,0,1-.076-.131,1.461,1.461,0,0,1,.089-1.8c-.021-.465-.029-1.152-.029-2.061a1.336,1.336,0,0,1,1.509-1.514,1.4,1.4,0,0,1,1.4.96,8.609,8.609,0,0,1,3.72-1.541q4.263-.868,4.675,3.373a1.51,1.51,0,1,1-3.021,0,1.512,1.512,0,0,0-.058-.494,3.808,3.808,0,0,0-1.932.292,4.994,4.994,0,0,0-1.759.928,10.82,10.82,0,0,0-.8.77,6.445,6.445,0,0,1-.623.594Q112.047,129.653,112.659,134.42Z" transform="translate(-28.224 -103.107)" fill="#fff"></path><path id="Path_21" data-name="Path 21" d="M82.385,116.068c-.573-.118-1.033.678-1.38,2.382q-.552,2.733,2.237,5.232a37.775,37.775,0,0,1,4.272,4.357,25.908,25.908,0,0,1,3.3,6.583,43.436,43.436,0,0,1,2.293,9.168,27.157,27.157,0,0,1-.116,8.808,6.888,6.888,0,0,1-3.939,5.461,5.255,5.255,0,0,1-6.2-.989,12.914,12.914,0,0,1-3.56-5.637,23.333,23.333,0,0,1-.918-6.757q-.012-3.822-.013-6.931a1.337,1.337,0,0,1,1.512-1.512,1.323,1.323,0,0,1,1.48,1.512q0,2.962.016,6.9a18.655,18.655,0,0,0,1.06,6.641,8.736,8.736,0,0,0,2.634,3.691q1.929,1.684,3.846-.526a7.592,7.592,0,0,0,1.512-4.777,31.142,31.142,0,0,0-.507-6.628,47.267,47.267,0,0,0-1.7-6.67,29.964,29.964,0,0,0-2.035-4.909,15.2,15.2,0,0,0-2.8-3.431,33.969,33.969,0,0,1-3.168-3.339,11.153,11.153,0,0,1-2.08-3.82,7.42,7.42,0,0,1,.468-4.9q1.365-3.4,3.689-2.921a13.808,13.808,0,0,1,4.619,1.932,1.351,1.351,0,0,1,.408,2.09,1.261,1.261,0,0,1-2.061.408A10.742,10.742,0,0,0,82.385,116.068Z" transform="translate(-77.892 -113)" fill="#fff"></path><path id="Path_22" data-name="Path 22" d="M89.605,122.389c-.347-.455-.61-.565-.784-.334a10.444,10.444,0,0,0-.539,2.209c-.26,1.357-.4,2.2-.421,2.527q-.142,1.889-.163,5.871a41.438,41.438,0,0,0,.279,5.845,13.773,13.773,0,0,0,.276,1.583c.126.534.229,1.067.3,1.609a20.42,20.42,0,0,0,.628,2.705,1.9,1.9,0,0,0,2.046,1.509q.872,0,.947-2t.071-2.616a1.51,1.51,0,1,1,3.021,0,22.533,22.533,0,0,1-.684,5.216q-.682,2.863-4.081,2.369-3.4-.528-4.054-3.239c-.436-1.814-.831-3.578-1.178-5.306a25.844,25.844,0,0,1-.45-3.168c-.066-.949-.1-2-.1-3.166q0-2.934.071-5.884a22.825,22.825,0,0,1,.889-5.768c.174-.62.321-1.157.436-1.614a2.333,2.333,0,0,1,1.22-1.294,2.96,2.96,0,0,1,3.371.016,6.84,6.84,0,0,1,2.324,2.687,1.357,1.357,0,0,1-.812,1.977,1.337,1.337,0,0,1-1.977-.815A7.536,7.536,0,0,0,89.605,122.389Z" transform="translate(-66.764 -103.354)" fill="#fff"></path><path id="Path_23" data-name="Path 23" d="M90.358,119.789a1.316,1.316,0,0,1-1.251-1.688,3.387,3.387,0,0,1,.7-1.683,1.664,1.664,0,0,1,2-.584,5.136,5.136,0,0,1,1.772,1.338,1.3,1.3,0,0,1-.347,2.09,1.352,1.352,0,0,1-1.6.116A1.344,1.344,0,0,1,90.358,119.789ZM94.236,136.5q.363,5,.768,9.618a35.564,35.564,0,0,0,.555,5.492c.313.936.41,1.94-.465,2.4s-1.627.192-2.266-.8l-.35-.726c-.152-.368-.271-3.116-.35-4.17s-.145-2.051-.2-2.979q-.375-4.417-.741-9.255t-.447-9.255a1.351,1.351,0,0,1,1.538-1.486,1.371,1.371,0,0,1,1.483,1.543Q93.872,131.5,94.236,136.5ZM92.929,153.1l.016.016-.016-.016a.052.052,0,0,1-.016-.042A.052.052,0,0,0,92.929,153.1Z" transform="translate(-59.663 -108.613)" fill="#fff"></path><path id="Path_24" data-name="Path 24" d="M97.464,121.924c-.079-.473-.386-.45-.931.071a3.865,3.865,0,0,0-.957,4.362,13.183,13.183,0,0,0,2.151,4.212,32.464,32.464,0,0,0,2.761,3.142,9.87,9.87,0,0,1,1.975,4.007,21.206,21.206,0,0,1,.668,6.757q-.114,4.291-3.515,5.014a4.224,4.224,0,0,1-3.092-.555,5.37,5.37,0,0,1-2.138-2.353,14.369,14.369,0,0,1-1.075-3.486,11.376,11.376,0,0,1-.147-3.662l.294-1.307a1.34,1.34,0,0,1,1.917-.931,1.354,1.354,0,0,1,.928,1.919,9.449,9.449,0,0,0,.786,6.16,3.266,3.266,0,0,0,.844,1.017,1.036,1.036,0,0,0,1.159.234c.755-.329,1.12-1.359,1.091-3.081a22.878,22.878,0,0,0-.247-3.576,10.029,10.029,0,0,0-1.351-3.573,36.933,36.933,0,0,0-2.369-2.847,17.137,17.137,0,0,1-2.992-4.609,9.032,9.032,0,0,1-.668-5.39,7.347,7.347,0,0,1,2.106-3.8,3.127,3.127,0,0,1,3.91-.728,2.937,2.937,0,0,1,1.654,1.9,17.935,17.935,0,0,1,.465,2.514,1.512,1.512,0,0,1-3.024,0C97.608,122.868,97.543,122.4,97.464,121.924Z" transform="translate(-54.246 -103.994)" fill="#fff"></path><path id="Path_25" data-name="Path 25" d="M102.2,121.924q-.118-.71-.928.071a3.858,3.858,0,0,0-.962,4.362,13.236,13.236,0,0,0,2.151,4.212,33.212,33.212,0,0,0,2.761,3.142,9.87,9.87,0,0,1,1.975,4.007,21.054,21.054,0,0,1,.668,6.757q-.114,4.291-3.513,5.014a4.238,4.238,0,0,1-3.1-.555,5.38,5.38,0,0,1-2.135-2.353,14.6,14.6,0,0,1-1.078-3.486,11.439,11.439,0,0,1-.142-3.662l.289-1.307a1.508,1.508,0,0,1,2.85.989,9.463,9.463,0,0,0,.781,6.16,3.341,3.341,0,0,0,.844,1.017,1.045,1.045,0,0,0,1.165.234c.755-.329,1.12-1.359,1.088-3.081a22.545,22.545,0,0,0-.247-3.576,10.029,10.029,0,0,0-1.351-3.573,36.321,36.321,0,0,0-2.369-2.847,17.137,17.137,0,0,1-2.992-4.609,9.054,9.054,0,0,1-.67-5.39,7.371,7.371,0,0,1,2.109-3.8,3.123,3.123,0,0,1,3.907-.728,2.927,2.927,0,0,1,1.656,1.9,18.329,18.329,0,0,1,.468,2.514,1.512,1.512,0,0,1-3.024,0C102.341,122.868,102.273,122.4,102.2,121.924Z" transform="translate(-46.54 -103.994)" fill="#fff"></path><path id="Path_26" data-name="Path 26" d="M113.034,120.3a8.763,8.763,0,0,1,3.946,6.807,47.362,47.362,0,0,1,.3,8.516,50.453,50.453,0,0,1-1.207,7.017,8.688,8.688,0,0,1-3.647,5.74q-3.514,2.181-5.9-.347a21.929,21.929,0,0,1-3.749-5.287q-1.392-2.879-.886-8.721a39.662,39.662,0,0,1,1.554-8.892,14.489,14.489,0,0,1,2.253-4.343,5.791,5.791,0,0,1,4.286-2.077,1.456,1.456,0,0,1,1.336.839A4,4,0,0,1,113.034,120.3Zm-6.355,4.817a26.508,26.508,0,0,0-1.5,5.9,39.451,39.451,0,0,0-.4,6.147,10.733,10.733,0,0,0,.534,3.949,23.857,23.857,0,0,0,1.528,2.663,6.7,6.7,0,0,0,1.99,2.248,1.673,1.673,0,0,0,2.122-.244,6.04,6.04,0,0,0,1.451-1.846,21.8,21.8,0,0,0,1.309-4.738,38.864,38.864,0,0,0,.668-6.626,24.648,24.648,0,0,0-.626-6.231c-.455-1.89-1.28-3.123-2.542-3.531-.839-.268-1.454-.339-1.743-.9a.093.093,0,0,1-.029-.061Q107.724,122.43,106.679,125.115Z" transform="translate(-39.002 -103.698)" fill="#fff"></path><path id="Path_27" data-name="Path 27" d="M118.6,121.924c-.076-.473-.389-.45-.931.071a3.874,3.874,0,0,0-.96,4.362,13.291,13.291,0,0,0,2.151,4.212,32.835,32.835,0,0,0,2.761,3.142,9.833,9.833,0,0,1,1.977,4.007,21.282,21.282,0,0,1,.668,6.757q-.114,4.291-3.515,5.014a4.231,4.231,0,0,1-3.095-.555,5.386,5.386,0,0,1-2.138-2.353,14.371,14.371,0,0,1-1.073-3.486,11.228,11.228,0,0,1-.147-3.662l.292-1.307a1.341,1.341,0,0,1,1.917-.931,1.355,1.355,0,0,1,.931,1.919,9.447,9.447,0,0,0,.783,6.16,3.341,3.341,0,0,0,.844,1.017,1.04,1.04,0,0,0,1.162.234c.755-.329,1.117-1.359,1.088-3.081a22.546,22.546,0,0,0-.247-3.576,10.03,10.03,0,0,0-1.351-3.573,35.753,35.753,0,0,0-2.369-2.847,17.263,17.263,0,0,1-2.992-4.609,9.073,9.073,0,0,1-.668-5.39,7.366,7.366,0,0,1,2.106-3.8,3.127,3.127,0,0,1,3.91-.728,2.934,2.934,0,0,1,1.656,1.9,18.732,18.732,0,0,1,.465,2.514,1.512,1.512,0,0,1-3.024,0C118.747,122.868,118.681,122.4,118.6,121.924Z" transform="translate(-19.808 -103.994)" fill="#fff"></path></g><g id="Group_6" data-name="Group 6" transform="translate(190.138)"><path id="Path_28" data-name="Path 28" d="M149.649,141.866a8.624,8.624,0,0,0,.7,3.226q1.483,2.82,2.093-.058a9.835,9.835,0,0,1,.321-1.412,16.621,16.621,0,0,1,.8-2.366,1.591,1.591,0,0,1,1.083-.492,1.347,1.347,0,0,1,1.63,1.365,12.413,12.413,0,0,1-.279,1.336c-.066.216-.623,2.18-.623,2.18q-.726,3.49-3.415,3.647t-4.257-2.832a10.322,10.322,0,0,1-1.06-4.244c-.129-1.78-.179-3.544-.16-5.287a1.422,1.422,0,0,1-.642-1.133,1.5,1.5,0,0,1,.7-1.367c.021-.389.029-.923.029-1.6q0-1.1.189-3.473a32.1,32.1,0,0,1,.741-4.751,15.343,15.343,0,0,1,1.57-4.17,2.978,2.978,0,0,1,2.7-1.759,4.353,4.353,0,0,1,3.891,2.2,13.415,13.415,0,0,1,1.7,5,25.093,25.093,0,0,1,.173,5.8,27.9,27.9,0,0,1-.684,4.591c-.347,1.378-1.044,1.859-2.09,1.454-1.025-.06-1.932-.147-2.716-.263s-1.643-.2-2.574-.26Q149.476,139.6,149.649,141.866Zm2.153-7.5c.755.074,1.538.155,2.351.231a38.291,38.291,0,0,0,.379-7.5c-.076-3.237-1.336-6-2.7-5.377-.715.329-1.191,2.277-1.6,4.735a43.974,43.974,0,0,0-.641,5q-.055.868-.087,2.732C150.28,134.233,151.043,134.291,151.8,134.37Z" transform="translate(-79.284 -103.754)" fill="#fff"></path><path id="Path_29" data-name="Path 29" d="M143.582,120.3a8.772,8.772,0,0,1,3.949,6.807,47.324,47.324,0,0,1,.3,8.516,51.2,51.2,0,0,1-1.2,7.017,8.707,8.707,0,0,1-3.647,5.74q-3.518,2.181-5.9-.347a21.943,21.943,0,0,1-3.752-5.287q-1.392-2.879-.886-8.721A39.664,39.664,0,0,1,134,125.13a14.489,14.489,0,0,1,2.253-4.343,5.787,5.787,0,0,1,4.286-2.077,1.456,1.456,0,0,1,1.336.839A3.99,3.99,0,0,1,143.582,120.3Zm-6.355,4.817a26.369,26.369,0,0,0-1.5,5.9,40.125,40.125,0,0,0-.408,6.147,10.7,10.7,0,0,0,.539,3.949,23.438,23.438,0,0,0,1.528,2.663,6.723,6.723,0,0,0,1.988,2.248,1.673,1.673,0,0,0,2.122-.244,6.081,6.081,0,0,0,1.451-1.846,21.678,21.678,0,0,0,1.307-4.738,38.867,38.867,0,0,0,.67-6.626,24.9,24.9,0,0,0-.623-6.231c-.457-1.89-1.28-3.123-2.542-3.531-.841-.268-1.457-.339-1.746-.9a.107.107,0,0,1-.029-.061Q138.272,122.43,137.227,125.115Z" transform="translate(-101.328 -103.698)" fill="#fff"></path><path id="Path_30" data-name="Path 30" d="M125.018,116.068c-.573-.118-1.033.678-1.38,2.382q-.552,2.733,2.237,5.232a37.776,37.776,0,0,1,4.272,4.357,25.916,25.916,0,0,1,3.3,6.583,43.447,43.447,0,0,1,2.3,9.168,27.225,27.225,0,0,1-.118,8.808,6.886,6.886,0,0,1-3.936,5.461,5.259,5.259,0,0,1-6.2-.989,12.915,12.915,0,0,1-3.56-5.637,23.338,23.338,0,0,1-.915-6.757q-.02-3.822-.016-6.931a1.337,1.337,0,0,1,1.512-1.512,1.322,1.322,0,0,1,1.48,1.512q0,2.962.016,6.9a18.713,18.713,0,0,0,1.06,6.641,8.775,8.775,0,0,0,2.632,3.691q1.928,1.684,3.852-.526a7.607,7.607,0,0,0,1.507-4.777,30.8,30.8,0,0,0-.507-6.628,47.258,47.258,0,0,0-1.7-6.67,30.2,30.2,0,0,0-2.035-4.909A15,15,0,0,0,126,128.038a34.6,34.6,0,0,1-3.168-3.339,11.14,11.14,0,0,1-2.074-3.82,7.431,7.431,0,0,1,.463-4.9q1.368-3.4,3.691-2.921a13.785,13.785,0,0,1,4.619,1.932,1.351,1.351,0,0,1,.408,2.09,1.261,1.261,0,0,1-2.061.408A10.741,10.741,0,0,0,125.018,116.068Z" transform="translate(-120.527 -113)" fill="#fff"></path><path id="Path_31" data-name="Path 31" d="M130.595,122.028q.221,3.471.481,6.959c.755.018,1.507.055,2.253.1s1.291.1,1.641.16l1.02.35a1.349,1.349,0,0,1,.347,2.093,1.523,1.523,0,0,1-1.861.494,18.564,18.564,0,0,0-3.194-.176q.083,1.921.16,3.807c.045,1.259.071,2.529.071,3.81q0,2.177.276,7.685c.184,3.67.752,7.075,1.262,7.335s2.006-.783,2.124-1.83a15.539,15.539,0,0,0-.029-3.4,1.332,1.332,0,0,1,1.246-1.743,1.346,1.346,0,0,1,1.717,1.249,26.95,26.95,0,0,1,.158,3.181,6.237,6.237,0,0,1-.854,3.066,5.4,5.4,0,0,1-2.645,2.148,3.5,3.5,0,0,1-3.168.06c-.8-.426-1.4-1.428-1.817-3.008a34.577,34.577,0,0,1-.918-5.2q-.284-2.836-.331-5.537t-.016-4.038q0-1.948-.087-3.894l-.174-3.894a1.366,1.366,0,0,1-.9-1.367,1.4,1.4,0,0,1,.723-1.278q-.256-3.518-.492-7.033t-.231-7.091a1.51,1.51,0,1,1,3.021,0Q130.379,118.555,130.595,122.028Z" transform="translate(-109.398 -112.146)" fill="#fff"></path><path id="Path_32" data-name="Path 32" d="M141.919,122.836a9.424,9.424,0,0,1,5.9-2.895q3.376-.335,5.03,4a16.084,16.084,0,0,1,.944,4.475c.129,1.643.189,3.168.189,4.559a34.943,34.943,0,0,0,.363,5.306c.281,2.161.521,3.954.713,5.39a23.159,23.159,0,0,0,.379,2.616,1.587,1.587,0,0,1,.087.9,1.36,1.36,0,0,1-1.772,1.162,1.952,1.952,0,0,1-1.338-1.775q-.465-2.7-.815-5.913t-.581-6a42.969,42.969,0,0,1-.187-5.521,8.96,8.96,0,0,0-1.351-5.232q-1.4-2.09-3.736-.273A11.371,11.371,0,0,0,142.7,126.7c-.26.492-.26.492-.434.61q.461,4.764,1.12,9.531a74.285,74.285,0,0,1,.678,9.7,1.5,1.5,0,1,1-2.992,0,83.458,83.458,0,0,0-1.1-12.944,85.559,85.559,0,0,1-1.133-12.83,1.512,1.512,0,0,1,3.024,0Q141.862,121.439,141.919,122.836Zm13.1,22.9a2.842,2.842,0,0,1,.266.292A2.842,2.842,0,0,0,155.023,145.734Z" transform="translate(-90.695 -102.797)" fill="#fff"></path></g></g></g></svg>